<svg width="100" height="101" viewBox="0 0 100 101" fill="none" xmlns="http://www.w3.org/2000/svg">
<path id="Vector" d="M50.011 24.7346C35.8227 24.7346 24.3782 36.1817 24.3782 50.3733C24.3782 64.565 35.8227 76.012 50.011 76.012C64.1997 76.012 75.6444 64.565 75.6444 50.3733C75.6444 36.1817 64.1997 24.7346 50.011 24.7346ZM50.011 67.042C40.842 67.042 33.3464 59.5667 33.3464 50.3733C33.3464 41.18 40.82 33.7048 50.011 33.7048C59.2024 33.7048 66.6761 41.18 66.6761 50.3733C66.6761 59.5667 59.18 67.042 50.011 67.042ZM82.6717 23.6858C82.6717 27.0106 79.9944 29.666 76.6927 29.666C73.3687 29.666 70.7141 26.9883 70.7141 23.6858C70.7141 20.3833 73.3911 17.7057 76.6927 17.7057C79.9944 17.7057 82.6717 20.3833 82.6717 23.6858ZM99.6488 29.7552C99.2694 21.7445 97.4401 14.6487 91.5727 8.8024C85.7277 2.95613 78.6337 1.12639 70.6247 0.724735C62.3704 0.256143 37.6297 0.256143 29.3754 0.724735C21.3888 1.10408 14.2945 2.93382 8.42724 8.7801C2.55996 14.6263 0.752927 21.7222 0.351367 29.7329C-0.117122 37.989 -0.117122 62.7353 0.351367 70.9913C0.73062 79.002 2.55996 86.098 8.42724 91.9444C14.2945 97.7904 21.3665 99.6204 29.3754 100.022C37.6297 100.49 62.3704 100.49 70.6247 100.022C78.6337 99.6427 85.7277 97.8127 91.5727 91.9444C97.4177 86.098 99.2471 79.002 99.6488 70.9913C100.117 62.7353 100.117 38.0113 99.6488 29.7552ZM88.9851 79.85C87.2451 84.2237 83.8764 87.593 79.4814 89.3557C72.9004 91.9667 57.284 91.364 50.011 91.364C42.7384 91.364 27.0999 91.9444 20.541 89.3557C16.1684 87.6154 12.7998 84.246 11.0374 79.85C8.42724 73.2673 9.02957 57.6477 9.02957 50.3733C9.02957 43.099 8.44954 27.4569 11.0374 20.8966C12.7775 16.523 16.1461 13.1536 20.541 11.3908C27.1222 8.78007 42.7384 9.38257 50.011 9.38257C57.284 9.38257 72.9224 8.8024 79.4814 11.3908C83.8541 13.1313 87.2227 16.5007 88.9851 20.8966C91.5951 27.4792 90.9927 43.099 90.9927 50.3733C90.9927 57.6477 91.5951 73.2897 88.9851 79.85Z" fill="url(#paint0_linear_46_14)"/>
<defs>
<linearGradient id="paint0_linear_46_14" x1="12.5" y1="1.07566e-05" x2="24.5" y2="100" gradientUnits="userSpaceOnUse">
<stop stop-color="#E60AB6"/>
<stop offset="1" stop-color="#FF0101" stop-opacity="0.5"/>
</linearGradient>
</defs>
</svg>
