<svg width="77" height="84" viewBox="0 0 77 84" fill="none" xmlns="http://www.w3.org/2000/svg">
<path d="M65.3438 24.2778H11.1562L15.9375 71.5L38.25 77.0557L60.5625 71.5L65.3438 24.2778Z" fill="#0277BD"/>
<path d="M38.25 28.4444V72.7499L56.1 68.3054L60.0844 28.4444H38.25Z" fill="#039BE5"/>
<path d="M52.7531 35.3888H38.25V40.9444H46.0594L45.5813 46.4999H38.25V52.0555H45.2625L44.7844 58.3054L38.25 60.2499V66.0832L50.8406 62.4722L51.9563 46.4999L52.7531 35.3888Z" fill="white"/>
<path d="M38.25 35.3888V40.9444H24.0656L23.5875 35.3888H38.25ZM30.9187 46.4999L31.2375 52.0555H38.25V46.4999H30.9187ZM31.5562 54.8332H25.1812L25.6594 62.4722L38.25 66.0832V60.2499L31.7156 58.3054L31.5562 54.8332Z" fill="#EEEEEE"/>
<path d="M32.2613 22.65C31.1714 22.65 30.2613 22.425 29.5313 21.975C28.8014 21.525 28.2513 20.885 27.8813 20.055C27.5213 19.225 27.3413 18.25 27.3413 17.13C27.3413 16.05 27.5363 15.1 27.9263 14.28C28.3263 13.45 28.9113 12.805 29.6813 12.345C30.4514 11.875 31.3863 11.64 32.4863 11.64C33.0363 11.64 33.5663 11.695 34.0763 11.805C34.5863 11.915 35.0414 12.07 35.4413 12.27L34.9013 13.41C34.5713 13.26 34.2014 13.125 33.7913 13.005C33.3914 12.885 32.9513 12.825 32.4713 12.825C31.7114 12.825 31.0514 13 30.4913 13.35C29.9414 13.69 29.5163 14.185 29.2163 14.835C28.9163 15.475 28.7663 16.245 28.7663 17.145C28.7663 18.025 28.9013 18.79 29.1713 19.44C29.4513 20.09 29.8613 20.59 30.4013 20.94C30.9513 21.29 31.6364 21.465 32.4563 21.465C32.9264 21.465 33.3713 21.425 33.7913 21.345C34.2113 21.265 34.6214 21.165 35.0213 21.045V22.215C34.6214 22.365 34.2063 22.475 33.7763 22.545C33.3563 22.615 32.8514 22.65 32.2613 22.65ZM39.6089 22.65C39.2089 22.65 38.8238 22.63 38.4539 22.59C38.0939 22.55 37.7639 22.495 37.4639 22.425C37.1639 22.345 36.8989 22.25 36.6689 22.14V20.85C37.0289 21.01 37.4738 21.155 38.0039 21.285C38.5439 21.415 39.0989 21.48 39.6689 21.48C40.1989 21.48 40.6439 21.41 41.0039 21.27C41.3639 21.13 41.6339 20.93 41.8139 20.67C41.9939 20.41 42.0839 20.105 42.0839 19.755C42.0839 19.405 42.0089 19.11 41.8589 18.87C41.7089 18.63 41.4488 18.41 41.0789 18.21C40.7189 18 40.2139 17.78 39.5639 17.55C38.9539 17.33 38.4439 17.08 38.0339 16.8C37.6238 16.52 37.3139 16.185 37.1039 15.795C36.9038 15.395 36.8039 14.92 36.8039 14.37C36.8039 13.8 36.9488 13.315 37.2389 12.915C37.5289 12.505 37.9289 12.19 38.4389 11.97C38.9588 11.75 39.5539 11.64 40.2239 11.64C40.8139 11.64 41.3539 11.695 41.8439 11.805C42.3338 11.915 42.7789 12.06 43.1789 12.24L42.7589 13.395C42.3889 13.235 41.9839 13.1 41.5439 12.99C41.1139 12.88 40.6639 12.825 40.1939 12.825C39.7439 12.825 39.3689 12.89 39.0689 13.02C38.7689 13.15 38.5439 13.335 38.3939 13.575C38.2439 13.805 38.1689 14.075 38.1689 14.385C38.1689 14.745 38.2439 15.045 38.3939 15.285C38.5439 15.525 38.7889 15.74 39.1289 15.93C39.4688 16.12 39.9289 16.325 40.5089 16.545C41.1389 16.775 41.6689 17.025 42.0989 17.295C42.5389 17.555 42.8689 17.87 43.0889 18.24C43.3189 18.61 43.4339 19.075 43.4339 19.635C43.4339 20.275 43.2788 20.82 42.9689 21.27C42.6589 21.71 42.2138 22.05 41.6339 22.29C41.0639 22.53 40.3889 22.65 39.6089 22.65ZM47.8413 22.65C47.4413 22.65 47.0563 22.63 46.6863 22.59C46.3263 22.55 45.9963 22.495 45.6963 22.425C45.3963 22.345 45.1313 22.25 44.9013 22.14V20.85C45.2613 21.01 45.7063 21.155 46.2363 21.285C46.7763 21.415 47.3313 21.48 47.9013 21.48C48.4313 21.48 48.8763 21.41 49.2363 21.27C49.5963 21.13 49.8663 20.93 50.0463 20.67C50.2263 20.41 50.3163 20.105 50.3163 19.755C50.3163 19.405 50.2413 19.11 50.0913 18.87C49.9413 18.63 49.6813 18.41 49.3113 18.21C48.9513 18 48.4463 17.78 47.7963 17.55C47.1863 17.33 46.6763 17.08 46.2663 16.8C45.8563 16.52 45.5463 16.185 45.3363 15.795C45.1363 15.395 45.0363 14.92 45.0363 14.37C45.0363 13.8 45.1813 13.315 45.4713 12.915C45.7613 12.505 46.1613 12.19 46.6713 11.97C47.1913 11.75 47.7863 11.64 48.4563 11.64C49.0463 11.64 49.5863 11.695 50.0763 11.805C50.5663 11.915 51.0113 12.06 51.4113 12.24L50.9913 13.395C50.6213 13.235 50.2163 13.1 49.7763 12.99C49.3463 12.88 48.8963 12.825 48.4263 12.825C47.9763 12.825 47.6013 12.89 47.3013 13.02C47.0013 13.15 46.7763 13.335 46.6263 13.575C46.4763 13.805 46.4013 14.075 46.4013 14.385C46.4013 14.745 46.4763 15.045 46.6263 15.285C46.7763 15.525 47.0213 15.74 47.3613 15.93C47.7013 16.12 48.1613 16.325 48.7413 16.545C49.3713 16.775 49.9013 17.025 50.3313 17.295C50.7713 17.555 51.1013 17.87 51.3213 18.24C51.5513 18.61 51.6663 19.075 51.6663 19.635C51.6663 20.275 51.5113 20.82 51.2013 21.27C50.8913 21.71 50.4463 22.05 49.8663 22.29C49.2963 22.53 48.6213 22.65 47.8413 22.65Z" fill="black"/>
<path d="M27.8813 20.055L27.5373 20.2042L27.5388 20.2077L27.8813 20.055ZM27.9263 14.28L27.5885 14.1172L27.5877 14.1189L27.9263 14.28ZM29.6813 12.345L29.8736 12.667L29.8767 12.6651L29.6813 12.345ZM35.4413 12.27L35.7803 12.4305L35.9374 12.0988L35.609 11.9346L35.4413 12.27ZM34.9013 13.41L34.7462 13.7514L35.0822 13.9042L35.2403 13.5705L34.9013 13.41ZM33.7913 13.005L33.6836 13.3642L33.686 13.3649L33.7913 13.005ZM30.4913 13.35L30.6885 13.669L30.6901 13.668L30.4913 13.35ZM29.2163 14.835L29.5559 14.9941L29.5568 14.9921L29.2163 14.835ZM29.1713 19.44L28.825 19.5838L28.8269 19.5883L29.1713 19.44ZM30.4013 20.94L30.1973 21.2547L30.2 21.2563L30.4013 20.94ZM35.0213 21.045H35.3963V20.541L34.9136 20.6858L35.0213 21.045ZM35.0213 22.215L35.153 22.5661L35.3963 22.4749V22.215H35.0213ZM33.7763 22.545L33.7161 22.1749L33.7147 22.1751L33.7763 22.545ZM32.2613 22.275C31.2222 22.275 30.3849 22.0606 29.7281 21.6558L29.3345 22.2942C30.1378 22.7893 31.1204 23.025 32.2613 23.025V22.275ZM29.7281 21.6558C29.0663 21.2478 28.565 20.6677 28.2239 19.9023L27.5388 20.2077C27.9376 21.1022 28.5364 21.8022 29.3345 22.2942L29.7281 21.6558ZM28.2254 19.9057C27.89 19.1326 27.7163 18.2105 27.7163 17.13H26.9663C26.9663 18.2895 27.1526 19.3173 27.5373 20.2042L28.2254 19.9057ZM27.7163 17.13C27.7163 16.0953 27.903 15.2021 28.265 14.4411L27.5877 14.1189C27.1697 14.9979 26.9663 16.0047 26.9663 17.13H27.7163ZM28.2641 14.4428C28.6332 13.677 29.1685 13.0882 29.8736 12.667L29.489 12.0231C28.6542 12.5218 28.0195 13.2229 27.5885 14.1172L28.2641 14.4428ZM29.8767 12.6651C30.5762 12.2381 31.4402 12.015 32.4863 12.015V11.265C31.3325 11.265 30.3265 11.5118 29.486 12.0249L29.8767 12.6651ZM32.4863 12.015C33.0112 12.015 33.5146 12.0675 33.9973 12.1716L34.1554 11.4384C33.6181 11.3225 33.0615 11.265 32.4863 11.265V12.015ZM33.9973 12.1716C34.4815 12.276 34.906 12.4216 35.2736 12.6054L35.609 11.9346C35.1767 11.7184 34.6912 11.554 34.1554 11.4384L33.9973 12.1716ZM35.1024 12.1095L34.5624 13.2495L35.2403 13.5705L35.7803 12.4305L35.1024 12.1095ZM35.0565 13.0686C34.7078 12.9101 34.3208 12.7692 33.8966 12.6451L33.686 13.3649C34.0819 13.4808 34.4348 13.6099 34.7462 13.7514L35.0565 13.0686ZM33.8991 12.6458C33.4594 12.5139 32.9825 12.45 32.4713 12.45V13.2C32.9201 13.2 33.3233 13.2561 33.6836 13.3642L33.8991 12.6458ZM32.4713 12.45C31.6519 12.45 30.9207 12.6394 30.2926 13.032L30.6901 13.668C31.1819 13.3606 31.7708 13.2 32.4713 13.2V12.45ZM30.2942 13.031C29.6749 13.4138 29.2033 13.9684 28.8758 14.6779L29.5568 14.9921C29.8294 14.4016 30.2078 13.9662 30.6885 13.669L30.2942 13.031ZM28.8768 14.6758C28.5479 15.3773 28.3913 16.2045 28.3913 17.145H29.1413C29.1413 16.2855 29.2847 15.5727 29.5559 14.9941L28.8768 14.6758ZM28.3913 17.145C28.3913 18.0625 28.532 18.8784 28.825 19.5838L29.5176 19.2961C29.2707 18.7016 29.1413 17.9875 29.1413 17.145H28.3913ZM28.8269 19.5883C29.1332 20.2993 29.5889 20.8603 30.1973 21.2547L30.6053 20.6253C30.1337 20.3197 29.7695 19.8806 29.5157 19.2916L28.8269 19.5883ZM30.2 21.2563C30.824 21.6534 31.5833 21.84 32.4563 21.84V21.09C31.6894 21.09 31.0787 20.9266 30.6026 20.6236L30.2 21.2563ZM32.4563 21.84C32.9476 21.84 33.4162 21.7982 33.8615 21.7134L33.7211 20.9766C33.3264 21.0518 32.9051 21.09 32.4563 21.09V21.84ZM33.8615 21.7134C34.2939 21.631 34.7165 21.528 35.1291 21.4042L34.9136 20.6858C34.5263 20.802 34.1288 20.899 33.7211 20.9766L33.8615 21.7134ZM34.6463 21.045V22.215H35.3963V21.045H34.6463ZM34.8896 21.8638C34.5132 22.005 34.1222 22.1087 33.7161 22.1749L33.8366 22.9151C34.2905 22.8412 34.7294 22.725 35.153 22.5661L34.8896 21.8638ZM33.7147 22.1751C33.3212 22.2407 32.8379 22.275 32.2613 22.275V23.025C32.8647 23.025 33.3915 22.9893 33.838 22.9149L33.7147 22.1751ZM38.4539 22.59L38.4125 22.9627L38.4136 22.9628L38.4539 22.59ZM37.4639 22.425L37.3673 22.7873L37.373 22.7888L37.3787 22.7902L37.4639 22.425ZM36.6689 22.14H36.2939V22.3763L36.5071 22.4783L36.6689 22.14ZM36.6689 20.85L36.8212 20.5073L36.2939 20.2729V20.85H36.6689ZM38.0039 21.285L37.9145 21.6492L37.9161 21.6496L38.0039 21.285ZM41.0789 18.21L40.8899 18.5339L40.8952 18.537L40.9006 18.5399L41.0789 18.21ZM39.5639 17.55L39.4367 17.9028L39.4388 17.9035L39.5639 17.55ZM37.1039 15.795L36.7685 15.9627L36.771 15.9678L36.7737 15.9727L37.1039 15.795ZM37.2389 12.915L37.5425 13.1351L37.545 13.1315L37.2389 12.915ZM38.4389 11.97L38.2928 11.6246L38.2904 11.6257L38.4389 11.97ZM43.1789 12.24L43.5313 12.3682L43.6503 12.0409L43.3328 11.898L43.1789 12.24ZM42.7589 13.395L42.6101 13.7392L42.9753 13.8971L43.1113 13.5232L42.7589 13.395ZM41.5439 12.99L41.4509 13.3533L41.4529 13.3538L41.5439 12.99ZM38.3939 13.575L38.708 13.7799L38.7119 13.7737L38.3939 13.575ZM40.5089 16.545L40.3759 16.8956L40.3802 16.8973L40.5089 16.545ZM42.0989 17.295L41.8994 17.6127L41.9081 17.6179L42.0989 17.295ZM43.0889 18.24L42.7665 18.4317L42.7704 18.438L43.0889 18.24ZM42.9689 21.27L43.2755 21.486L43.2777 21.4828L42.9689 21.27ZM41.6339 22.29L41.4905 21.9435L41.4884 21.9444L41.6339 22.29ZM39.6089 22.275C39.2213 22.275 38.8499 22.2556 38.4942 22.2172L38.4136 22.9628C38.7979 23.0044 39.1964 23.025 39.6089 23.025V22.275ZM38.4953 22.2173C38.1476 22.1786 37.8324 22.1259 37.5491 22.0598L37.3787 22.7902C37.6953 22.864 38.0402 22.9213 38.4125 22.9627L38.4953 22.2173ZM37.5605 22.0627C37.2782 21.9874 37.0358 21.8998 36.8306 21.8017L36.5071 22.4783C36.7619 22.6002 37.0495 22.7026 37.3673 22.7873L37.5605 22.0627ZM37.0439 22.14V20.85H36.2939V22.14H37.0439ZM36.5165 21.1927C36.9029 21.3644 37.3706 21.5158 37.9145 21.6492L38.0932 20.9208C37.5772 20.7942 37.1548 20.6556 36.8212 20.5073L36.5165 21.1927ZM37.9161 21.6496C38.4856 21.7867 39.0701 21.855 39.6689 21.855V21.105C39.1277 21.105 38.6021 21.0433 38.0916 20.9204L37.9161 21.6496ZM39.6689 21.855C40.2293 21.855 40.7236 21.7813 41.1398 21.6195L40.868 20.9205C40.5641 21.0386 40.1685 21.105 39.6689 21.105V21.855ZM41.1398 21.6195C41.5539 21.4585 41.891 21.2174 42.1222 20.8834L41.5055 20.4565C41.3768 20.6425 41.1738 20.8015 40.868 20.9205L41.1398 21.6195ZM42.1222 20.8834C42.3502 20.5541 42.4589 20.1727 42.4589 19.755H41.7089C41.7089 20.0372 41.6375 20.2659 41.5055 20.4565L42.1222 20.8834ZM42.4589 19.755C42.4589 19.3513 42.372 18.9835 42.1769 18.6712L41.5409 19.0687C41.6457 19.2364 41.7089 19.4587 41.7089 19.755H42.4589ZM42.1769 18.6712C41.9797 18.3558 41.6585 18.097 41.2572 17.8801L40.9006 18.5399C41.2392 18.7229 41.438 18.9042 41.5409 19.0687L42.1769 18.6712ZM41.2679 17.8861C40.8787 17.659 40.3488 17.4299 39.689 17.1964L39.4388 17.9035C40.079 18.13 40.559 18.3409 40.8899 18.5339L41.2679 17.8861ZM39.6911 17.1973C39.1024 16.9849 38.6226 16.7479 38.2454 16.4903L37.8224 17.1097C38.2651 17.412 38.8054 17.6752 39.4367 17.9028L39.6911 17.1973ZM38.2454 16.4903C37.8788 16.24 37.6123 15.9483 37.4341 15.6172L36.7737 15.9727C37.0154 16.4217 37.3689 16.8 37.8224 17.1097L38.2454 16.4903ZM37.4393 15.6273C37.2706 15.2899 37.1789 14.8749 37.1789 14.37H36.4289C36.4289 14.965 36.5372 15.5 36.7685 15.9627L37.4393 15.6273ZM37.1789 14.37C37.1789 13.8664 37.3058 13.4616 37.5425 13.1351L36.9353 12.6949C36.592 13.1684 36.4289 13.7335 36.4289 14.37H37.1789ZM37.545 13.1315C37.7911 12.7837 38.1338 12.51 38.5874 12.3143L38.2904 11.6257C37.724 11.8699 37.2667 12.2263 36.9327 12.6985L37.545 13.1315ZM38.585 12.3154C39.0509 12.1182 39.5948 12.015 40.2239 12.015V11.265C39.5129 11.265 38.8667 11.3818 38.2928 11.6246L38.585 12.3154ZM40.2239 12.015C40.7909 12.015 41.3029 12.0679 41.7617 12.1709L41.926 11.4391C41.4049 11.3221 40.8368 11.265 40.2239 11.265V12.015ZM41.7617 12.1709C42.2306 12.2761 42.6511 12.4137 43.025 12.582L43.3328 11.898C42.9067 11.7063 42.4372 11.5539 41.926 11.4391L41.7617 12.1709ZM42.8264 12.1118L42.4064 13.2668L43.1113 13.5232L43.5313 12.3682L42.8264 12.1118ZM42.9077 13.0508C42.5168 12.8818 42.0922 12.7405 41.6348 12.6262L41.4529 13.3538C41.8755 13.4594 42.2609 13.5882 42.6101 13.7392L42.9077 13.0508ZM41.6368 12.6267C41.1747 12.5085 40.6934 12.45 40.1939 12.45V13.2C40.6343 13.2 41.0531 13.2515 41.4509 13.3533L41.6368 12.6267ZM40.1939 12.45C39.7106 12.45 39.281 12.5194 38.9198 12.6759L39.218 13.3641C39.4568 13.2606 39.7771 13.2 40.1939 13.2V12.45ZM38.9198 12.6759C38.5612 12.8313 38.2721 13.0622 38.0759 13.3762L38.7119 13.7737C38.8156 13.6078 38.9765 13.4687 39.218 13.3641L38.9198 12.6759ZM38.0798 13.3702C37.8851 13.6687 37.7939 14.0119 37.7939 14.385H38.5439C38.5439 14.1381 38.6027 13.9414 38.708 13.7799L38.0798 13.3702ZM37.7939 14.385C37.7939 14.7964 37.8797 15.1699 38.0759 15.4837L38.7119 15.0862C38.608 14.92 38.5439 14.6936 38.5439 14.385H37.7939ZM38.0759 15.4837C38.2696 15.7936 38.5706 16.0476 38.9459 16.2574L39.3118 15.6026C39.0072 15.4324 38.8181 15.2563 38.7119 15.0862L38.0759 15.4837ZM38.9459 16.2574C39.3085 16.4599 39.7875 16.6724 40.3759 16.8956L40.6418 16.1944C40.0703 15.9775 39.6293 15.78 39.3118 15.6026L38.9459 16.2574ZM40.3802 16.8973C40.9929 17.1209 41.4975 17.3604 41.8994 17.6127L42.2983 16.9774C41.8402 16.6897 41.2849 16.429 40.6375 16.1927L40.3802 16.8973ZM41.9081 17.6179C42.3041 17.8518 42.5842 18.1251 42.7665 18.4317L43.4112 18.0484C43.1535 17.6149 42.7736 17.2582 42.2897 16.9721L41.9081 17.6179ZM42.7704 18.438C42.9543 18.7338 43.0589 19.1253 43.0589 19.635H43.8089C43.8089 19.0247 43.6835 18.4862 43.4074 18.042L42.7704 18.438ZM43.0589 19.635C43.0589 20.2123 42.92 20.68 42.6601 21.0572L43.2777 21.4828C43.6378 20.96 43.8089 20.3376 43.8089 19.635H43.0589ZM42.6623 21.054C42.3997 21.4268 42.0159 21.7261 41.4905 21.9435L41.7773 22.6365C42.4118 22.3739 42.9181 21.9931 43.2755 21.486L42.6623 21.054ZM41.4884 21.9444C40.9748 22.1606 40.3514 22.275 39.6089 22.275V23.025C40.4263 23.025 41.153 22.8994 41.7794 22.6356L41.4884 21.9444ZM46.6863 22.59L46.6449 22.9627L46.646 22.9628L46.6863 22.59ZM45.6963 22.425L45.5996 22.7873L45.6053 22.7888L45.6111 22.7902L45.6963 22.425ZM44.9013 22.14H44.5263V22.3763L44.7395 22.4783L44.9013 22.14ZM44.9013 20.85L45.0536 20.5073L44.5263 20.2729V20.85H44.9013ZM46.2363 21.285L46.147 21.6492L46.1485 21.6496L46.2363 21.285ZM49.3113 18.21L49.1223 18.5339L49.1276 18.537L49.133 18.5399L49.3113 18.21ZM47.7963 17.55L47.669 17.9028L47.6712 17.9035L47.7963 17.55ZM45.3363 15.795L45.0009 15.9627L45.0035 15.9678L45.0061 15.9727L45.3363 15.795ZM45.4713 12.915L45.7749 13.1351L45.7775 13.1315L45.4713 12.915ZM46.6713 11.97L46.5252 11.6246L46.5227 11.6257L46.6713 11.97ZM51.4113 12.24L51.7637 12.3682L51.8827 12.0409L51.5652 11.898L51.4113 12.24ZM50.9913 13.395L50.8424 13.7392L51.2077 13.8971L51.3437 13.5232L50.9913 13.395ZM49.7763 12.99L49.6834 13.3533L49.6853 13.3538L49.7763 12.99ZM46.6263 13.575L46.9405 13.7799L46.9443 13.7737L46.6263 13.575ZM48.7413 16.545L48.6083 16.8956L48.6127 16.8973L48.7413 16.545ZM50.3313 17.295L50.1318 17.6127L50.1405 17.6179L50.3313 17.295ZM51.3213 18.24L50.9989 18.4317L51.0028 18.438L51.3213 18.24ZM51.2013 21.27L51.5078 21.486L51.5101 21.4828L51.2013 21.27ZM49.8663 22.29L49.7229 21.9435L49.7207 21.9444L49.8663 22.29ZM47.8413 22.275C47.4538 22.275 47.0822 22.2556 46.7266 22.2172L46.646 22.9628C47.0303 23.0044 47.4288 23.025 47.8413 23.025V22.275ZM46.7277 22.2173C46.3799 22.1786 46.0648 22.1259 45.7815 22.0598L45.6111 22.7902C45.9278 22.864 46.2726 22.9213 46.6449 22.9627L46.7277 22.2173ZM45.7929 22.0627C45.5107 21.9874 45.2682 21.8998 45.0631 21.8017L44.7395 22.4783C44.9944 22.6002 45.2819 22.7026 45.5996 22.7873L45.7929 22.0627ZM45.2763 22.14V20.85H44.5263V22.14H45.2763ZM44.749 21.1927C45.1354 21.3644 45.6029 21.5158 46.147 21.6492L46.3256 20.9208C45.8096 20.7942 45.3872 20.6556 45.0536 20.5073L44.749 21.1927ZM46.1485 21.6496C46.718 21.7867 47.3025 21.855 47.9013 21.855V21.105C47.3601 21.105 46.8346 21.0433 46.3241 20.9204L46.1485 21.6496ZM47.9013 21.855C48.4616 21.855 48.956 21.7813 49.3722 21.6195L49.1004 20.9205C48.7966 21.0386 48.401 21.105 47.9013 21.105V21.855ZM49.3722 21.6195C49.7864 21.4585 50.1234 21.2174 50.3546 20.8834L49.738 20.4565C49.6092 20.6425 49.4063 20.8015 49.1004 20.9205L49.3722 21.6195ZM50.3546 20.8834C50.5826 20.5541 50.6913 20.1727 50.6913 19.755H49.9413C49.9413 20.0372 49.87 20.2659 49.738 20.4565L50.3546 20.8834ZM50.6913 19.755C50.6913 19.3513 50.6045 18.9835 50.4093 18.6712L49.7733 19.0687C49.8782 19.2364 49.9413 19.4587 49.9413 19.755H50.6913ZM50.4093 18.6712C50.2121 18.3558 49.891 18.097 49.4896 17.8801L49.133 18.5399C49.4716 18.7229 49.6705 18.9042 49.7733 19.0687L50.4093 18.6712ZM49.5002 17.8861C49.1111 17.659 48.5812 17.4299 47.9214 17.1964L47.6712 17.9035C48.3114 18.13 48.7915 18.3409 49.1223 18.5339L49.5002 17.8861ZM47.9235 17.1973C47.3348 16.9849 46.8551 16.7479 46.4778 16.4903L46.0548 17.1097C46.4975 17.412 47.0378 17.6752 47.669 17.9028L47.9235 17.1973ZM46.4778 16.4903C46.1113 16.24 45.8447 15.9483 45.6665 15.6172L45.0061 15.9727C45.2479 16.4217 45.6014 16.8 46.0548 17.1097L46.4778 16.4903ZM45.6717 15.6273C45.503 15.2899 45.4113 14.8749 45.4113 14.37H44.6613C44.6613 14.965 44.7695 15.5 45.0009 15.9627L45.6717 15.6273ZM45.4113 14.37C45.4113 13.8664 45.5382 13.4616 45.7749 13.1351L45.1677 12.6949C44.8244 13.1684 44.6613 13.7335 44.6613 14.37H45.4113ZM45.7775 13.1315C46.0235 12.7837 46.3662 12.51 46.8198 12.3143L46.5227 11.6257C45.9564 11.8699 45.4991 12.2263 45.1652 12.6985L45.7775 13.1315ZM46.8174 12.3154C47.2834 12.1182 47.8273 12.015 48.4563 12.015V11.265C47.7453 11.265 47.0992 11.3818 46.5252 11.6246L46.8174 12.3154ZM48.4563 12.015C49.0233 12.015 49.5353 12.0679 49.9942 12.1709L50.1584 11.4391C49.6373 11.3221 49.0693 11.265 48.4563 11.265V12.015ZM49.9942 12.1709C50.4629 12.2761 50.8835 12.4137 51.2574 12.582L51.5652 11.898C51.1391 11.7063 50.6696 11.5539 50.1584 11.4391L49.9942 12.1709ZM51.0589 12.1118L50.6389 13.2668L51.3437 13.5232L51.7637 12.3682L51.0589 12.1118ZM51.1401 13.0508C50.7493 12.8818 50.3246 12.7405 49.8672 12.6262L49.6853 13.3538C50.108 13.4594 50.4933 13.5882 50.8424 13.7392L51.1401 13.0508ZM49.8692 12.6267C49.4072 12.5085 48.9258 12.45 48.4263 12.45V13.2C48.8668 13.2 49.2854 13.2515 49.6834 13.3533L49.8692 12.6267ZM48.4263 12.45C47.9431 12.45 47.5134 12.5194 47.1522 12.6759L47.4504 13.3641C47.6891 13.2606 48.0095 13.2 48.4263 13.2V12.45ZM47.1522 12.6759C46.7936 12.8313 46.5046 13.0622 46.3083 13.3762L46.9443 13.7737C47.048 13.6078 47.209 13.4687 47.4504 13.3641L47.1522 12.6759ZM46.3122 13.3702C46.1175 13.6687 46.0263 14.0119 46.0263 14.385H46.7763C46.7763 14.1381 46.8352 13.9414 46.9405 13.7799L46.3122 13.3702ZM46.0263 14.385C46.0263 14.7964 46.1122 15.1699 46.3083 15.4837L46.9443 15.0862C46.8404 14.92 46.7763 14.6936 46.7763 14.385H46.0263ZM46.3083 15.4837C46.502 15.7936 46.803 16.0476 47.1784 16.2574L47.5442 15.6026C47.2396 15.4324 47.0506 15.2563 46.9443 15.0862L46.3083 15.4837ZM47.1784 16.2574C47.5409 16.4599 48.0198 16.6724 48.6083 16.8956L48.8743 16.1944C48.3027 15.9775 47.8616 15.78 47.5442 15.6026L47.1784 16.2574ZM48.6127 16.8973C49.2253 17.1209 49.7299 17.3604 50.1318 17.6127L50.5307 16.9774C50.0726 16.6897 49.5173 16.429 48.8699 16.1927L48.6127 16.8973ZM50.1405 17.6179C50.5365 17.8518 50.8166 18.1251 50.9989 18.4317L51.6436 18.0484C51.386 17.6149 51.0061 17.2582 50.522 16.9721L50.1405 17.6179ZM51.0028 18.438C51.1867 18.7338 51.2913 19.1253 51.2913 19.635H52.0413C52.0413 19.0247 51.9159 18.4862 51.6398 18.042L51.0028 18.438ZM51.2913 19.635C51.2913 20.2123 51.1524 20.68 50.8925 21.0572L51.5101 21.4828C51.8702 20.96 52.0413 20.3376 52.0413 19.635H51.2913ZM50.8947 21.054C50.6321 21.4268 50.2484 21.7261 49.7229 21.9435L50.0097 22.6365C50.6442 22.3739 51.1505 21.9931 51.5078 21.486L50.8947 21.054ZM49.7207 21.9444C49.2071 22.1606 48.5839 22.275 47.8413 22.275V23.025C48.6587 23.025 49.3854 22.8994 50.0118 22.6356L49.7207 21.9444Z" fill="black"/>
</svg>
