<svg width="72" height="84" viewBox="0 0 72 84" fill="none" xmlns="http://www.w3.org/2000/svg">
<path d="M60.8594 28.0106H10.3906L14.8438 72.2814L35.625 77.49L56.4063 72.2814L60.8594 28.0106Z" fill="#E65100"/>
<path d="M35.625 31.9168V73.4532L52.25 69.2866L55.961 31.9168H35.625Z" fill="#FF6D00"/>
<path d="M35.625 54.052V48.8438H48.3906L47.3515 63.8177L35.625 67.2031V61.7344L41.711 59.9114L42.1562 54.052H35.625ZM48.836 43.6354L49.2812 38.4271H35.625V43.6354H48.836Z" fill="white"/>
<path d="M35.625 61.7344V67.2031L23.8984 63.8177L23.3047 56.6562H29.2422L29.539 59.9114L35.625 61.7344ZM28.3516 43.6354H35.625V38.4271H22.1172L23.1562 54.052H35.625V48.8438H28.7968L28.3516 43.6354Z" fill="#EEEEEE"/>
<path d="M17.3661 22.5V11.79H18.7161V16.32H24.2061V11.79H25.5561V22.5H24.2061V17.505H18.7161V22.5H17.3661ZM30.5243 22.5V12.975H27.1793V11.79H35.2043V12.975H31.8743V22.5H30.5243ZM36.8192 22.5V11.79H38.8142L42.1142 20.565H42.1742L45.5342 11.79H47.5142V22.5H46.1792V15.915C46.1792 15.565 46.1842 15.22 46.1942 14.88C46.2043 14.53 46.2193 14.205 46.2392 13.905C46.2592 13.595 46.2742 13.335 46.2842 13.125H46.2242L42.6542 22.5H41.5442L38.0192 13.11H37.9592C37.9792 13.31 37.9942 13.565 38.0042 13.875C38.0242 14.185 38.0392 14.525 38.0492 14.895C38.0593 15.255 38.0642 15.625 38.0642 16.005V22.5H36.8192ZM50.4277 22.5V11.79H51.7777V21.3H56.4577V22.5H50.4277Z" fill="black"/>
<path d="M17.3661 22.5H16.9911V22.875H17.3661V22.5ZM17.3661 11.79V11.415H16.9911V11.79H17.3661ZM18.7161 11.79H19.0911V11.415H18.7161V11.79ZM18.7161 16.32H18.3411V16.695H18.7161V16.32ZM24.2061 16.32V16.695H24.5811V16.32H24.2061ZM24.2061 11.79V11.415H23.8311V11.79H24.2061ZM25.5561 11.79H25.9311V11.415H25.5561V11.79ZM25.5561 22.5V22.875H25.9311V22.5H25.5561ZM24.2061 22.5H23.8311V22.875H24.2061V22.5ZM24.2061 17.505H24.5811V17.13H24.2061V17.505ZM18.7161 17.505V17.13H18.3411V17.505H18.7161ZM18.7161 22.5V22.875H19.0911V22.5H18.7161ZM17.7411 22.5V11.79H16.9911V22.5H17.7411ZM17.3661 12.165H18.7161V11.415H17.3661V12.165ZM18.3411 11.79V16.32H19.0911V11.79H18.3411ZM18.7161 16.695H24.2061V15.945H18.7161V16.695ZM24.5811 16.32V11.79H23.8311V16.32H24.5811ZM24.2061 12.165H25.5561V11.415H24.2061V12.165ZM25.1811 11.79V22.5H25.9311V11.79H25.1811ZM25.5561 22.125H24.2061V22.875H25.5561V22.125ZM24.5811 22.5V17.505H23.8311V22.5H24.5811ZM24.2061 17.13H18.7161V17.88H24.2061V17.13ZM18.3411 17.505V22.5H19.0911V17.505H18.3411ZM18.7161 22.125H17.3661V22.875H18.7161V22.125ZM30.5243 22.5H30.1493V22.875H30.5243V22.5ZM30.5243 12.975H30.8993V12.6H30.5243V12.975ZM27.1793 12.975H26.8043V13.35H27.1793V12.975ZM27.1793 11.79V11.415H26.8043V11.79H27.1793ZM35.2043 11.79H35.5793V11.415H35.2043V11.79ZM35.2043 12.975V13.35H35.5793V12.975H35.2043ZM31.8743 12.975V12.6H31.4993V12.975H31.8743ZM31.8743 22.5V22.875H32.2493V22.5H31.8743ZM30.8993 22.5V12.975H30.1493V22.5H30.8993ZM30.5243 12.6H27.1793V13.35H30.5243V12.6ZM27.5543 12.975V11.79H26.8043V12.975H27.5543ZM27.1793 12.165H35.2043V11.415H27.1793V12.165ZM34.8293 11.79V12.975H35.5793V11.79H34.8293ZM35.2043 12.6H31.8743V13.35H35.2043V12.6ZM31.4993 12.975V22.5H32.2493V12.975H31.4993ZM31.8743 22.125H30.5243V22.875H31.8743V22.125ZM36.8192 22.5H36.4442V22.875H36.8192V22.5ZM36.8192 11.79V11.415H36.4442V11.79H36.8192ZM38.8142 11.79L39.1652 11.658L39.0739 11.415H38.8142V11.79ZM42.1142 20.565L41.7632 20.697L41.8546 20.94H42.1142V20.565ZM42.1742 20.565V20.94H42.4322L42.5245 20.6991L42.1742 20.565ZM45.5342 11.79V11.415H45.2763L45.184 11.6559L45.5342 11.79ZM47.5142 11.79H47.8892V11.415H47.5142V11.79ZM47.5142 22.5V22.875H47.8892V22.5H47.5142ZM46.1792 22.5H45.8042V22.875H46.1792V22.5ZM46.2392 13.905L46.6134 13.93L46.6135 13.9292L46.2392 13.905ZM46.2842 13.125L46.6588 13.1428L46.6775 12.75H46.2842V13.125ZM46.2242 13.125V12.75H45.9658L45.8738 12.9916L46.2242 13.125ZM42.6542 22.5V22.875H42.9127L43.0047 22.6334L42.6542 22.5ZM41.5442 22.5L41.1931 22.6318L41.2845 22.875H41.5442V22.5ZM38.0192 13.11L38.3703 12.9782L38.279 12.735H38.0192V13.11ZM37.9592 13.11V12.735H37.5448L37.5861 13.1474L37.9592 13.11ZM38.0042 13.875L37.6294 13.8871L37.6297 13.8932L37.63 13.8991L38.0042 13.875ZM38.0642 22.5V22.875H38.4392V22.5H38.0642ZM37.1942 22.5V11.79H36.4442V22.5H37.1942ZM36.8192 12.165H38.8142V11.415H36.8192V12.165ZM38.4632 11.922L41.7632 20.697L42.4652 20.433L39.1652 11.658L38.4632 11.922ZM42.1142 20.94H42.1742V20.19H42.1142V20.94ZM42.5245 20.6991L45.8845 11.9241L45.184 11.6559L41.824 20.4309L42.5245 20.6991ZM45.5342 12.165H47.5142V11.415H45.5342V12.165ZM47.1392 11.79V22.5H47.8892V11.79H47.1392ZM47.5142 22.125H46.1792V22.875H47.5142V22.125ZM46.5542 22.5V15.915H45.8042V22.5H46.5542ZM46.5542 15.915C46.5542 15.5686 46.5592 15.2272 46.5691 14.891L45.8194 14.869C45.8093 15.2128 45.8042 15.5614 45.8042 15.915H46.5542ZM46.5691 14.891C46.579 14.545 46.5938 14.2245 46.6134 13.93L45.8651 13.88C45.8447 14.1855 45.8296 14.515 45.8194 14.869L46.5691 14.891ZM46.6135 13.9292C46.6336 13.6179 46.6487 13.3557 46.6588 13.1428L45.9097 13.1071C45.8998 13.3143 45.8849 13.5721 45.865 13.8808L46.6135 13.9292ZM46.2842 12.75H46.2242V13.5H46.2842V12.75ZM45.8738 12.9916L42.3038 22.3666L43.0047 22.6334L46.5747 13.2584L45.8738 12.9916ZM42.6542 22.125H41.5442V22.875H42.6542V22.125ZM41.8953 22.3682L38.3703 12.9782L37.6681 13.2418L41.1931 22.6318L41.8953 22.3682ZM38.0192 12.735H37.9592V13.485H38.0192V12.735ZM37.5861 13.1474C37.6049 13.3358 37.6196 13.5815 37.6294 13.8871L38.3791 13.8629C38.3689 13.5484 38.3536 13.2843 38.3324 13.0727L37.5861 13.1474ZM37.63 13.8991C37.6497 14.2037 37.6645 14.539 37.6744 14.9051L38.4241 14.8849C38.414 14.5111 38.3988 14.1663 38.3785 13.8508L37.63 13.8991ZM37.6744 14.9051C37.6843 15.2615 37.6892 15.6283 37.6892 16.005H38.4392C38.4392 15.6217 38.4342 15.2486 38.4241 14.8849L37.6744 14.9051ZM37.6892 16.005V22.5H38.4392V16.005H37.6892ZM38.0642 22.125H36.8192V22.875H38.0642V22.125ZM50.4277 22.5H50.0527V22.875H50.4277V22.5ZM50.4277 11.79V11.415H50.0527V11.79H50.4277ZM51.7777 11.79H52.1527V11.415H51.7777V11.79ZM51.7777 21.3H51.4027V21.675H51.7777V21.3ZM56.4577 21.3H56.8327V20.925H56.4577V21.3ZM56.4577 22.5V22.875H56.8327V22.5H56.4577ZM50.8027 22.5V11.79H50.0527V22.5H50.8027ZM50.4277 12.165H51.7777V11.415H50.4277V12.165ZM51.4027 11.79V21.3H52.1527V11.79H51.4027ZM51.7777 21.675H56.4577V20.925H51.7777V21.675ZM56.0827 21.3V22.5H56.8327V21.3H56.0827ZM56.4577 22.125H50.4277V22.875H56.4577V22.125Z" fill="black"/>
</svg>
