<svg width="72" height="72" viewBox="0 0 72 72" fill="none" xmlns="http://www.w3.org/2000/svg">
<path d="M9 63V9H63V63H9Z" fill="#FFD600"/>
<path d="M44.307 49.4205C45.345 51.1065 46.473 52.722 48.8625 52.722C50.8695 52.722 51.9225 51.7245 51.9225 50.3445C51.9225 48.693 50.8335 48.1065 48.6255 47.145L47.415 46.629C43.9215 45.147 41.598 43.29 41.598 39.3675C41.598 35.7525 44.3655 33.0015 48.69 33.0015C51.7695 33.0015 53.982 34.068 55.578 36.861L51.807 39.2715C50.9775 37.7895 50.0805 37.206 48.69 37.206C47.271 37.206 46.3725 38.1015 46.3725 39.2715C46.3725 40.7175 47.2725 41.3025 49.35 42.198L50.5605 42.714C54.678 44.4675 57 46.2585 57 50.2845C57 54.6225 53.574 57 48.975 57C44.4765 57 41.922 54.7425 40.5 51.948L44.307 49.4205ZM26.928 49.5435C27.687 50.9025 28.8405 51.948 30.4995 51.948C32.0865 51.948 33 51.321 33 48.8835V33H37.9995V49.6515C37.9995 54.702 35.07 57 30.792 57C26.9265 57 24.1365 54.381 22.9995 51.948L26.928 49.5435Z" fill="#000001"/>
</svg>
